<svg id="light" enable-background="new 0 0 24 24" height="512" viewBox="0 0 24 24" width="512" xmlns="http://www.w3.org/2000/svg"><g><path d="m22.5 6h-21c-.827 0-1.5-.673-1.5-1.5v-3c0-.827.673-1.5 1.5-1.5h21c.827 0 1.5.673 1.5 1.5v3c0 .827-.673 1.5-1.5 1.5zm-21-5c-.276 0-.5.224-.5.5v3c0 .276.224.5.5.5h21c.276 0 .5-.224.5-.5v-3c0-.276-.224-.5-.5-.5z"/></g><g><path d="m9.5 24h-8c-.827 0-1.5-.673-1.5-1.5v-13c0-.827.673-1.5 1.5-1.5h8c.827 0 1.5.673 1.5 1.5v13c0 .827-.673 1.5-1.5 1.5zm-8-15c-.276 0-.5.224-.5.5v13c0 .276.224.5.5.5h8c.276 0 .5-.224.5-.5v-13c0-.276-.224-.5-.5-.5z"/></g><g><path d="m22.5 15h-8c-.827 0-1.5-.673-1.5-1.5v-4c0-.827.673-1.5 1.5-1.5h8c.827 0 1.5.673 1.5 1.5v4c0 .827-.673 1.5-1.5 1.5zm-8-6c-.276 0-.5.224-.5.5v4c0 .276.224.5.5.5h8c.276 0 .5-.224.5-.5v-4c0-.276-.224-.5-.5-.5z"/></g><g><path d="m22.5 24h-8c-.827 0-1.5-.673-1.5-1.5v-4c0-.827.673-1.5 1.5-1.5h8c.827 0 1.5.673 1.5 1.5v4c0 .827-.673 1.5-1.5 1.5zm-8-6c-.276 0-.5.224-.5.5v4c0 .276.224.5.5.5h8c.276 0 .5-.224.5-.5v-4c0-.276-.224-.5-.5-.5z"/></g></svg>