<?xml version="1.0" encoding="iso-8859-1"?>
<!-- Generator: Adobe Illustrator 19.0.0, SVG Export Plug-In . SVG Version: 6.00 Build 0)  -->
<svg version="1.1" id="Capa_1" xmlns="http://www.w3.org/2000/svg" xmlns:xlink="http://www.w3.org/1999/xlink" x="0px" y="0px"
	 viewBox="0 0 480 480" style="enable-background:new 0 0 480 480;" xml:space="preserve">
<g>
	<g>
		<path d="M344,240c-57.438,0-104,46.562-104,104s46.562,104,104,104s104-46.562,104-104C447.934,286.59,401.41,240.066,344,240z
			 M344,432c-48.601,0-88-39.399-88-88c0-48.601,39.399-88,88-88c48.601,0,88,39.399,88,88C431.943,392.577,392.577,431.943,344,432
			z"/>
	</g>
</g>
<g>
	<g>
		<path d="M392,312c0-13.255-10.745-24-24-24h-8v-16h-16v16h-7.936l0.128-15.936l-16-0.128L320.064,288H296v16h16v80h-16v16h24.064
			l0.128,16.064l16-0.128L336.064,400H344v16h16v-16h8c13.255,0,24-10.745,24-24v-16c-0.021-5.923-2.245-11.627-6.24-16
			c3.995-4.373,6.219-10.077,6.24-16V312z M376,376c0,4.418-3.582,8-8,8h-40v-32h40c4.418,0,8,3.582,8,8V376z M376,328
			c0,4.418-3.582,8-8,8h-40v-32h40c4.418,0,8,3.582,8,8V328z"/>
	</g>
</g>
<g>
	<g>
		<path d="M344,208c-75.111,0-136,60.889-136,136s60.889,136,136,136s136-60.889,136-136C479.916,268.924,419.076,208.084,344,208z
			 M344,464c-66.274,0-120-53.726-120-120s53.726-120,120-120s120,53.726,120,120C463.925,410.243,410.243,463.925,344,464z"/>
	</g>
</g>
<g>
	<g>
		<path d="M136,32C78.562,32,32,78.562,32,136s46.562,104,104,104c57.41-0.066,103.934-46.59,104-104C240,78.562,193.438,32,136,32z
			 M136,224c-48.577-0.057-87.943-39.423-88-88c0-48.601,39.399-88,88-88s88,39.399,88,88S184.601,224,136,224z"/>
	</g>
</g>
<g>
	<g>
		<path d="M136,0C60.889,0,0,60.889,0,136s60.889,136,136,136c75.076-0.084,135.916-60.924,136-136C272,60.889,211.111,0,136,0z
			 M136,256c-66.243-0.075-119.925-53.757-120-120C16,69.726,69.726,16,136,16s120,53.726,120,120S202.274,256,136,256z"/>
	</g>
</g>
<g>
	<g>
		<path d="M136,128c-13.008,0-24-7.328-24-16s10.992-16,24-16s24,7.328,24,16c0,4.418,3.582,8,8,8s8-3.582,8-8
			c0-15.456-13.768-28.376-32-31.352V64h-16v16.648C109.768,83.624,96,96.544,96,112c0,17.648,17.944,32,40,32
			c13.008,0,24,7.328,24,16s-10.992,16-24,16s-24-7.328-24-16c0-4.418-3.582-8-8-8s-8,3.582-8,8c0,15.456,13.768,28.376,32,31.352
			V208h16v-16.648c18.232-2.976,32-15.896,32-31.352C176,142.352,158.056,128,136,128z"/>
	</g>
</g>
<g>
	<g>
		<path d="M344,80h-36.688l20.28-20.288L316.28,48.4L276.688,88l39.592,39.6l11.312-11.312L307.312,96H344
			c39.746,0.044,71.956,32.254,72,72v40h16v-40C431.943,119.423,392.577,80.057,344,80z"/>
	</g>
</g>
<g>
	<g>
		<path d="M155.72,352.4l-11.312,11.312L164.688,384H136c-39.746-0.044-71.956-32.254-72-72v-40H48v40
			c0.057,48.577,39.423,87.943,88,88h28.688l-20.28,20.288L155.72,431.6l39.592-39.6L155.72,352.4z"/>
	</g>
</g>
<g>
</g>
<g>
</g>
<g>
</g>
<g>
</g>
<g>
</g>
<g>
</g>
<g>
</g>
<g>
</g>
<g>
</g>
<g>
</g>
<g>
</g>
<g>
</g>
<g>
</g>
<g>
</g>
<g>
</g>
</svg>
