<?xml version="1.0" encoding="iso-8859-1"?>
<!-- Generator: Adobe Illustrator 19.0.0, SVG Export Plug-In . SVG Version: 6.00 Build 0)  -->
<svg xmlns="http://www.w3.org/2000/svg" xmlns:xlink="http://www.w3.org/1999/xlink" version="1.1" id="Layer_1" x="0px" y="0px" viewBox="0 0 512.002 512.002" style="enable-background:new 0 0 512.002 512.002;" xml:space="preserve" width="512" height="512">
<g>
	<path d="M339.181,180.902c-2.929-2.929-7.678-2.928-10.606,0c-2.929,2.929-2.929,7.678,0,10.607l11.336,11.337   c1.464,1.465,3.384,2.197,5.303,2.197s3.839-0.732,5.303-2.197c2.929-2.929,2.929-7.678,0-10.607L339.181,180.902z"/>
	<path d="M482.883,96.633c-7.08-7.08-17.358-9.854-28.936-7.81c-10.602,1.871-21.203,7.664-29.851,16.313   c-18.866,18.866-22.601,44.688-8.502,58.787c5.751,5.75,13.452,8.534,21.836,8.534c12.17,0,25.78-5.866,36.951-17.036   c8.648-8.648,14.442-19.25,16.313-29.851C492.736,113.989,489.963,103.713,482.883,96.633z M475.921,122.962   c-1.322,7.489-5.749,15.453-12.147,21.851c-12.488,12.488-29.694,16.382-37.574,8.502c-7.879-7.879-3.985-25.086,8.502-37.574   c6.398-6.398,14.363-10.825,21.851-12.147c1.24-0.219,2.825-0.411,4.563-0.411c3.638,0,7.947,0.844,11.159,4.056   C477.024,111.987,476.597,119.128,475.921,122.962z"/>
	<path d="M449.603,119.306l-11.336,11.336c-2.929,2.929-2.929,7.677,0,10.606c1.464,1.465,3.384,2.197,5.303,2.197   s3.839-0.732,5.303-2.197l11.336-11.336c2.929-2.929,2.929-7.677,0-10.606C457.281,116.377,452.532,116.377,449.603,119.306z"/>
	<path d="M411.175,256.962v-25.008c0-4.142-3.358-7.5-7.5-7.5h-29.501c8.021-8.521,12.952-19.982,12.952-32.581   c0-26.236-21.345-47.581-47.581-47.581s-47.581,21.344-47.581,47.581c0,12.598,4.931,24.06,12.952,32.581H106.025L382.748,97.792   c3.766-1.724,5.422-6.175,3.698-9.941L356.42,22.251c-1.725-3.769-4.814-6.64-8.699-8.085s-8.099-1.291-11.868,0.434l-53.396,24.44   l-27.087-29.017c-6.695-7.172-16.141-10.778-25.91-9.892c-9.771,0.886-18.413,6.131-23.709,14.39l-32.133,50.11l-58.928-8.429   c-9.712-1.389-19.33,1.723-26.386,8.54c-7.056,6.817-10.5,16.321-9.447,26.075l4.259,39.466l-53.395,24.44   c-3.769,1.725-6.64,4.814-8.085,8.698c-1.445,3.885-1.291,8.099,0.434,11.867l30.026,65.6c0.828,1.809,2.34,3.214,4.205,3.908   c0.845,0.314,1.73,0.471,2.615,0.471c0.194,0,0.388-0.016,0.581-0.031v251.249c0,8.556,6.96,15.516,15.516,15.516h320.645   c8.556,0,15.516-6.96,15.516-15.516V336.879c6.031,2.585,12.105,3.897,17.833,3.896c8.432,0,16.115-2.82,21.81-8.515   c14.098-14.099,10.364-39.921-8.502-58.787C433.241,264.399,422.044,258.547,411.175,256.962z M306.965,191.873   c0-17.965,14.616-32.581,32.581-32.581s32.581,14.615,32.581,32.581s-14.616,32.581-32.581,32.581S306.965,209.838,306.965,191.873   z M196.789,94.75l27.12,59.249l-15.517,7.102l-27.12-59.249L196.789,94.75z M342.096,28.239c0.032-0.015,0.106-0.049,0.211-0.049   c0.054,0,0.116,0.009,0.184,0.034c0.2,0.074,0.267,0.22,0.29,0.269l26.905,58.78l-132.138,60.482l-27.12-59.249L342.096,28.239z    M218.379,22.619c2.778-4.332,7.311-7.083,12.437-7.548c5.128-0.464,10.079,1.427,13.591,5.189l23.675,25.362l-47.686,21.827   l19.133-19.234c2.921-2.937,2.909-7.685-0.028-10.606c-2.937-2.922-7.685-2.91-10.607,0.028l-30.395,30.555l-8.558-1.224   L218.379,22.619z M93.771,89.208c-0.552-5.117,1.254-10.102,4.956-13.678c3.701-3.575,8.746-5.208,13.84-4.479l76.157,10.894   l-4.699,2.151l-66.964,4.728c-4.132,0.292-7.245,3.878-6.953,8.01c0.279,3.952,3.572,6.972,7.474,6.972   c0.177,0,0.356-0.006,0.536-0.019l27.063-1.911l-47.687,21.827L93.771,89.208z M35.709,169.047   c-0.022-0.048-0.089-0.194-0.014-0.394c0.074-0.2,0.221-0.267,0.269-0.289l131.669-60.268l27.12,59.25L62.615,227.827   L35.709,169.047z M74.497,496.486V239.454h137.307v257.548H75.014C74.729,497.002,74.497,496.771,74.497,496.486z M396.175,496.486   c0,0.285-0.231,0.516-0.516,0.516h-136.79v-216.95c0-4.142-3.358-7.5-7.5-7.5s-7.5,3.358-7.5,7.5v216.95h-17.064V239.454h17.064   v8.531c0,4.142,3.358,7.5,7.5,7.5s7.5-3.358,7.5-7.5v-8.531h137.306V496.486z M440.212,321.654c-6.001,6-18.049,5.142-29.037-1.703   v-16.727l6.364,6.364c1.464,1.464,3.384,2.197,5.303,2.197s3.839-0.732,5.303-2.197c2.929-2.929,2.929-7.678,0-10.607   l-11.337-11.336c-1.549-1.549-3.605-2.27-5.634-2.181v-13.265c7.026,1.567,14.434,5.782,20.535,11.882   C444.197,296.568,448.091,313.775,440.212,321.654z"/>
</g>















</svg>
