<?xml version="1.0" encoding="utf-8"?>
<!-- Generator: Adobe Illustrator 16.0.0, SVG Export Plug-In . SVG Version: 6.00 Build 0)  -->
<!DOCTYPE svg PUBLIC "-//W3C//DTD SVG 1.1//EN" "http://www.w3.org/Graphics/SVG/1.1/DTD/svg11.dtd">
<svg version="1.1" id="Layer_1" xmlns="http://www.w3.org/2000/svg" xmlns:xlink="http://www.w3.org/1999/xlink" x="0px" y="0px"
	 width="453px" height="453px" viewBox="0 0 453 453" enable-background="new 0 0 453 453" xml:space="preserve">
<path d="M241.615,82.839c-2.856-2.841-7.145-3.687-10.866-2.14s-6.15,5.184-6.15,9.214v53.242
	c-53.894,2.144-80.88,24.485-85.004,28.2c-27.19,22.314-45.755,53.41-52.498,87.927c-3.371,16.679-3.976,33.797-1.781,50.67
	l0.008,0.058c0.02,0.148,0.043,0.301,0.066,0.449l2.12,12.188c0.713,4.104,3.906,7.336,8.002,8.1
	c4.101,0.764,8.24-1.104,10.384-4.678l6.353-10.59c19.519-32.455,43.845-53.971,72.31-63.945c12.838-4.54,26.441-6.531,40.04-5.869
	v55.145c0,4.037,2.437,7.682,6.17,9.221c3.737,1.544,8.033,0.679,10.882-2.186l105.444-105.978
	c3.886-3.905,3.87-10.224-0.035-14.109L241.615,82.839z M244.559,276.627v-39.939c0-4.896-3.555-9.07-8.392-9.849
	c-8.536-1.376-31.302-3.563-58.208,5.866c-28.702,10.056-53.534,29.845-73.985,58.921c-0.059-9.553,0.846-19.091,2.701-28.465
	c6.065-30.662,21.468-56.418,45.778-76.542c0.214-0.175,0.417-0.358,0.615-0.554c0.698-0.646,26.041-23.526,81.43-23.113h0.074
	c5.512,0,9.982-4.471,9.986-9.982v-39.051l81.355,80.947L244.559,276.627z"/>
</svg>
